<?xml version="1.0" standalone="no"?>
<!DOCTYPE svg PUBLIC "-//W3C//DTD SVG 20010904//EN"
 "http://www.w3.org/TR/2001/REC-SVG-20010904/DTD/svg10.dtd">
<svg version="1.0" xmlns="http://www.w3.org/2000/svg"
 width="300.000000pt" height="285.000000pt" viewBox="0 0 300.000000 285.000000"
 preserveAspectRatio="xMidYMid meet">
<metadata>
Created by potrace 1.10, written by Peter Selinger 2001-2011
</metadata>
<g transform="translate(0.000000,285.000000) scale(0.100000,-0.100000)"
fill="#000000" stroke="none">
<path d="M1891 2700 c-92 -19 -244 -107 -346 -201 l-40 -37 -85 69 c-47 38
-128 90 -180 116 -92 47 -97 48 -186 48 -83 0 -93 -2 -126 -27 -72 -55 -108
-153 -108 -298 0 -70 17 -213 31 -268 3 -9 -28 -25 -88 -47 -173 -62 -308
-158 -352 -248 -27 -56 -27 -128 0 -184 46 -95 226 -220 390 -269 l56 -17 -14
-56 c-24 -95 -28 -285 -9 -361 68 -268 305 -262 643 16 l33 26 52 -47 c110
-100 254 -177 354 -190 214 -29 322 210 250 553 -12 57 -11 64 3 69 194 58
370 173 424 278 27 53 27 127 0 181 -49 93 -189 191 -358 250 -44 15 -81 28
-82 29 -2 1 4 36 12 79 22 115 20 289 -5 367 -21 69 -65 131 -109 153 -37 19
-108 26 -160 16z m-736 -40 c8 -7 15 -9 15 -5 0 4 7 2 15 -5 8 -7 15 -10 15
-6 0 18 183 -100 245 -158 49 -47 67 -51 93 -24 84 89 222 178 318 206 23 7
71 12 108 12 61 0 69 -2 105 -35 62 -57 84 -119 89 -260 4 -106 -3 -185 -24
-277 -5 -23 -1 -29 32 -46 22 -10 52 -22 69 -26 36 -9 196 -88 226 -113 72
-59 91 -79 112 -126 45 -97 10 -196 -98 -278 -61 -46 -180 -109 -255 -134 -86
-30 -86 -30 -67 -132 24 -132 17 -289 -17 -373 -30 -73 -71 -115 -130 -131
-46 -12 -122 -5 -174 17 -75 31 -92 39 -92 45 0 4 -10 9 -23 13 -12 3 -47 26
-77 52 -30 25 -70 59 -89 75 -19 16 -39 29 -45 29 -6 0 -31 -18 -56 -40 -41
-37 -178 -134 -190 -135 -3 0 -22 -8 -43 -18 -97 -46 -211 -56 -262 -23 -115
76 -142 234 -90 542 l7 41 -78 28 c-142 51 -249 115 -317 189 -34 37 -75 112
-55 101 10 -6 11 -5 0 6 -29 31 -6 127 45 184 50 56 151 122 248 161 17 6 47
19 68 28 21 9 44 16 51 16 34 0 39 27 23 112 -23 124 -17 317 12 383 25 57 44
80 86 107 25 16 43 18 108 15 42 -3 84 -10 92 -17z"/>
<path d="M1000 2617 c-87 -30 -125 -177 -96 -371 9 -59 16 -111 16 -116 0 -5
6 -15 14 -23 13 -12 28 -12 118 4 57 10 119 19 138 19 50 1 72 17 124 88 26
35 53 65 61 68 8 4 13 9 10 14 -2 4 7 18 21 31 45 42 48 57 21 92 -25 33 -161
130 -232 165 -67 33 -147 45 -195 29z m172 -40 c66 -29 154 -88 217 -144 l44
-39 -98 -122 c-96 -120 -99 -122 -139 -122 -23 -1 -86 -9 -141 -19 -55 -10
-103 -17 -106 -15 -13 7 -34 164 -33 249 1 114 17 170 60 213 33 33 38 34 87
29 29 -3 78 -16 109 -30z"/>
<path d="M1865 2611 c-52 -19 -161 -76 -181 -95 -6 -6 -28 -24 -49 -41 -21
-16 -49 -41 -61 -54 -24 -26 -21 -43 14 -80 9 -10 31 -34 47 -55 17 -21 51
-64 76 -94 l46 -56 119 -17 c66 -9 131 -19 146 -22 17 -4 33 0 42 9 33 32 54
243 36 348 -28 158 -100 206 -235 157z m144 -16 c75 -38 101 -226 60 -428 -11
-52 -14 -58 -33 -53 -53 13 -202 36 -235 36 -34 0 -41 6 -103 88 -37 48 -82
102 -99 121 l-32 34 34 29 c104 88 186 141 261 168 64 23 110 25 147 5z"/>
<path d="M1454 2298 c-62 -68 -96 -117 -92 -136 3 -15 17 -16 128 -14 160 4
164 5 146 40 -8 15 -22 36 -33 48 -10 12 -34 40 -54 63 -20 22 -41 41 -46 41
-5 0 -27 -19 -49 -42z m113 -48 c32 -39 59 -74 61 -78 1 -4 -56 -7 -127 -7
-147 0 -141 -10 -55 94 27 33 52 60 56 60 4 1 33 -31 65 -69z"/>
<path d="M1486 2093 c-1 -1 -43 -3 -94 -4 -93 -2 -93 -2 -121 -36 -36 -44
-178 -291 -186 -325 -8 -30 7 -61 112 -239 46 -77 85 -132 102 -141 36 -20
363 -18 406 3 19 10 50 50 95 126 37 62 71 109 75 105 5 -4 5 -2 2 4 -4 7 4
33 18 58 14 26 25 56 25 68 0 25 -41 107 -111 223 -10 17 -25 44 -34 61 -9 17
-30 45 -48 62 -31 30 -35 31 -135 34 -57 2 -105 2 -106 1z m296 -150 c42 -71
87 -151 101 -179 l25 -50 -49 -95 c-28 -52 -73 -130 -101 -175 l-51 -81 -116
-5 c-64 -3 -156 -3 -206 1 l-90 6 -56 90 c-31 50 -75 128 -99 174 l-44 84 47
91 c26 50 72 130 103 179 l56 87 202 0 202 0 76 -127z"/>
<path d="M1412 1893 c-107 -53 -142 -194 -72 -292 112 -154 361 -73 360 116
-1 73 -58 158 -123 182 -41 16 -127 13 -165 -6z m185 -29 c103 -59 111 -221
12 -289 -66 -47 -163 -46 -219 2 -58 48 -81 129 -59 200 12 39 78 100 116 109
16 3 33 7 38 9 21 6 71 -8 112 -31z"/>
<path d="M1110 2063 c-81 -12 -143 -29 -148 -41 -6 -17 35 -141 61 -184 17
-28 20 -29 34 -15 8 8 41 61 73 118 49 85 56 104 45 116 -14 13 -19 14 -65 6z
m60 -18 c0 -2 -15 -28 -34 -57 -18 -29 -46 -77 -61 -107 -31 -63 -30 -64 -74
57 l-29 81 31 6 c18 3 52 10 77 14 54 10 90 13 90 6z"/>
<path d="M1840 2062 c0 -5 41 -16 91 -24 50 -9 93 -18 95 -21 5 -5 -59 -187
-66 -187 -3 0 -17 24 -32 53 -49 92 -108 183 -108 164 0 -16 100 -200 121
-221 5 -6 18 -4 34 4 14 7 23 15 21 17 -2 3 7 36 20 75 34 95 30 110 -26 124
-69 17 -150 26 -150 16z"/>
<path d="M741 1967 c-53 -22 -98 -42 -101 -47 -3 -4 -19 -14 -36 -23 -43 -22
-114 -96 -131 -136 -30 -70 15 -151 129 -229 26 -18 51 -32 57 -32 5 0 15 -8
20 -17 6 -10 11 -15 11 -11 0 4 21 -2 48 -13 26 -11 67 -27 91 -36 55 -19 60
-14 100 92 16 44 41 108 55 142 l26 61 -45 105 c-25 58 -45 111 -45 117 0 6
-7 24 -15 40 -20 38 -41 37 -164 -13z m169 -57 c16 -44 40 -106 54 -136 l26
-56 -44 -112 c-24 -61 -48 -124 -54 -141 -11 -37 -24 -36 -130 5 -147 59 -282
175 -282 244 0 44 57 114 132 163 63 41 256 126 267 117 2 -2 16 -39 31 -84z"/>
<path d="M2112 1997 c-6 -7 -20 -39 -33 -72 -12 -33 -29 -78 -39 -100 -48
-109 -48 -104 0 -217 89 -214 75 -191 117 -183 57 10 190 73 261 123 156 109
158 211 7 329 -33 25 -165 96 -193 104 -4 1 -16 5 -27 9 -44 16 -83 19 -93 7z
m118 -40 c166 -63 290 -167 290 -242 0 -62 -85 -147 -207 -209 -52 -26 -185
-79 -187 -74 -1 2 -12 35 -25 73 -12 39 -37 102 -55 140 l-32 70 23 50 c12 28
37 89 54 138 18 48 37 87 43 87 6 -1 49 -15 96 -33z"/>
<path d="M1008 1558 c-36 -76 -53 -147 -40 -160 12 -12 106 -36 168 -43 47 -5
62 11 44 46 -6 10 -7 19 -3 19 4 0 3 4 -4 8 -7 4 -34 46 -61 92 -27 47 -55 86
-64 88 -10 2 -24 -15 -40 -50z m134 -126 l38 -64 -27 6 c-16 3 -63 10 -106 17
-65 10 -77 15 -72 28 4 9 20 54 37 100 l31 83 30 -53 c16 -30 47 -82 69 -117z"/>
<path d="M1926 1585 c-9 -13 -16 -28 -16 -32 0 -4 -21 -42 -45 -83 -25 -41
-45 -83 -45 -93 0 -18 6 -19 63 -13 121 11 167 25 167 49 0 13 -40 126 -60
170 -16 34 -43 35 -64 2z m75 -80 c36 -94 36 -95 15 -100 -39 -10 -181 -33
-184 -30 -1 1 16 32 38 69 22 36 50 87 62 111 12 25 24 45 27 45 4 0 22 -43
42 -95z"/>
<path d="M938 1317 c-17 -13 -36 -109 -45 -225 -7 -100 18 -203 63 -251 31
-35 35 -36 101 -36 54 0 81 6 133 29 67 31 140 76 175 109 11 11 35 30 53 44
17 14 32 33 32 42 0 10 -30 53 -67 97 -38 44 -79 97 -93 117 -28 41 -33 44
-105 52 -45 5 -137 19 -206 30 -14 3 -33 -1 -41 -8z m190 -33 l122 -17 34 -47
c18 -26 61 -79 95 -118 l61 -71 -53 -44 c-73 -62 -169 -123 -233 -147 -160
-59 -236 8 -238 210 -1 52 5 133 13 178 l14 84 31 -5 c17 -3 86 -14 154 -23z"/>
<path d="M2019 1326 c-2 -2 -29 -7 -59 -11 -126 -16 -182 -25 -201 -30 -9 -3
-36 -33 -60 -66 -24 -34 -51 -68 -59 -77 -34 -35 -80 -98 -80 -109 0 -32 156
-151 260 -198 131 -58 210 -43 257 47 25 49 28 63 30 178 2 114 -12 227 -31
258 -7 11 -47 17 -57 8z m60 -97 c16 -96 13 -237 -5 -299 -9 -30 -29 -66 -45
-83 -29 -28 -33 -29 -94 -25 -79 7 -188 62 -292 149 l-72 60 61 72 c33 40 75
93 92 119 29 44 34 47 86 53 30 4 98 14 150 24 69 12 97 14 102 6 4 -6 12 -40
17 -76z"/>
<path d="M1364 1266 c-7 -19 0 -32 61 -102 69 -79 74 -84 88 -78 19 8 139 162
135 174 -2 6 -34 -27 -73 -75 -54 -67 -71 -83 -80 -73 -47 53 -125 146 -125
149 0 2 58 3 130 1 86 -2 130 0 130 7 0 7 -46 11 -130 11 -104 0 -132 -3 -136
-14z"/>
<path d="M760 335 l0 -185 35 0 35 0 0 55 0 55 50 0 c49 0 50 -1 86 -54 31
-48 40 -54 75 -58 21 -2 39 -2 39 0 0 2 -18 28 -39 59 l-40 55 35 34 c44 44
50 114 15 164 -32 46 -76 60 -188 60 l-103 0 0 -185z m248 139 c18 -10 32 -21
32 -24 1 -3 5 -24 9 -47 7 -34 4 -49 -10 -73 -10 -16 -23 -30 -29 -30 -5 0
-14 -9 -20 -20 -9 -16 -6 -27 15 -54 14 -18 25 -38 25 -44 0 -22 -19 -12 -37
18 -9 17 -22 30 -27 30 -5 0 -7 3 -3 6 13 14 -24 34 -71 40 -55 6 -84 -12 -81
-50 3 -41 -1 -56 -16 -56 -11 0 -14 13 -13 54 1 30 6 53 10 50 4 -3 8 0 8 5 0
6 -4 11 -9 11 -5 0 -8 36 -8 80 1 44 6 80 12 80 5 0 4 5 -3 12 -7 7 -12 18
-12 26 0 23 186 12 228 -14z"/>
<path d="M880 482 c-24 -2 -50 -8 -56 -13 -6 -5 -12 -40 -13 -78 -2 -84 10
-101 75 -101 54 0 109 21 123 48 19 35 13 86 -11 110 -31 28 -64 38 -118 34z
m101 -40 c29 -25 30 -75 1 -105 -16 -16 -37 -22 -87 -25 l-65 -4 0 76 0 76 64
0 c47 0 70 -5 87 -18z"/>
<path d="M2120 463 c0 -29 -3 -33 -25 -33 -20 0 -25 -5 -25 -25 0 -20 5 -25
25 -25 25 0 25 -1 25 -89 0 -81 3 -93 24 -118 20 -23 32 -28 70 -28 52 0 68
11 60 42 -5 19 -11 21 -37 16 -44 -9 -57 15 -57 105 l0 74 40 -4 c38 -3 40 -2
40 24 0 26 -3 28 -41 28 -39 0 -40 1 -37 32 3 29 1 31 -30 32 -30 1 -32 -1
-32 -31z m41 -3 c5 -37 17 -50 47 -51 24 0 25 -1 7 -8 -11 -5 -23 -7 -27 -4
-12 7 -26 -70 -23 -125 4 -56 25 -92 54 -92 12 0 13 -2 3 -9 -23 -14 -63 0
-73 26 -5 13 -9 58 -9 99 0 60 -4 77 -19 90 -18 16 -18 17 0 35 11 11 19 26
19 34 0 17 19 21 21 5z"/>
<path d="M1230 430 c-20 -5 -48 -23 -67 -43 -105 -115 9 -280 164 -238 55 15
71 35 48 61 -16 17 -20 18 -38 5 -34 -24 -94 -19 -122 10 -14 13 -25 29 -25
35 0 6 40 10 110 10 l110 0 0 34 c0 83 -90 146 -180 126z m129 -57 c37 -45 41
-83 10 -83 -18 0 -19 3 -10 14 25 30 -32 95 -82 96 -62 0 -125 -61 -97 -95 9
-11 9 -19 2 -28 -14 -17 15 -78 40 -85 10 -2 18 -9 18 -14 0 -17 -44 3 -67 30
-13 15 -23 36 -24 47 -8 111 28 154 128 155 48 0 54 -3 82 -37z m-34 -18 c40
-39 32 -45 -55 -45 -89 0 -102 12 -54 49 36 28 79 27 109 -4z m33 -170 c-10
-10 -68 -24 -68 -16 0 5 15 13 33 18 31 9 46 8 35 -2z m-78 -9 c0 -11 -19 -15
-25 -6 -3 5 1 10 9 10 9 0 16 -2 16 -4z"/>
<path d="M1550 432 c-46 -6 -90 -23 -90 -35 0 -7 6 -19 13 -28 11 -15 16 -15
37 -3 52 28 130 7 130 -35 0 -16 -10 -19 -76 -23 -65 -3 -79 -7 -95 -27 -65
-80 42 -172 142 -123 30 15 39 17 35 6 -4 -10 4 -14 30 -14 l36 0 -4 110 c-3
103 -5 112 -30 136 -26 27 -82 42 -128 36z m94 -33 c33 -16 37 -28 43 -136 5
-98 0 -109 -40 -79 -15 12 -15 15 -2 26 20 17 19 57 -2 68 -16 9 -16 11 0 27
23 23 21 38 -8 68 -21 20 -34 25 -68 23 -23 -1 -51 -6 -62 -10 -20 -8 -20 -7
-1 8 23 19 103 21 140 5z m-139 -146 c-18 -34 -5 -59 38 -79 l32 -15 -35 7
c-49 9 -71 31 -67 66 1 16 9 33 17 38 25 16 29 11 15 -17z m135 -7 c0 -48 -74
-74 -112 -39 -22 20 -22 27 -2 47 10 10 33 16 65 16 45 0 49 -2 49 -24z"/>
<path d="M1883 428 c-51 -11 -99 -61 -109 -113 -9 -50 20 -121 58 -145 65 -39
153 -33 197 13 l22 24 -27 17 c-25 17 -27 17 -48 -3 -52 -48 -136 -8 -136 64
0 27 8 44 29 66 35 34 68 37 105 8 25 -20 28 -20 52 -4 21 13 23 19 13 31 -30
37 -95 54 -156 42z m99 -24 c9 -3 19 -12 22 -20 5 -12 2 -14 -11 -9 -70 29
-72 29 -107 12 -94 -44 -79 -184 21 -203 21 -4 45 -1 61 7 15 7 30 15 35 17 4
2 7 -2 7 -7 0 -6 -15 -17 -33 -25 -35 -14 -87 -18 -87 -7 0 4 -10 7 -22 8 -23
2 -67 44 -69 66 0 7 -2 26 -3 42 -9 94 80 151 186 119z"/>
</g>
</svg>
